<?xml version="1.0" encoding="UTF-8"?>
<svg id="Camada_2" data-name="Camada 2" xmlns="http://www.w3.org/2000/svg" xmlns:xlink="http://www.w3.org/1999/xlink" viewBox="0 0 500 296.5">
  <defs>
    <style>
      .cls-1 {
        fill: red;
      }

      .cls-1, .cls-2, .cls-3, .cls-4, .cls-5 {
        stroke-width: 0px;
      }

      .cls-2 {
        fill: none;
      }

      .cls-3 {
        fill: #fff;
      }

      .cls-4 {
        fill: #9a0511;
      }

      .cls-6 {
        clip-path: url(#clippath);
      }

      .cls-5 {
        fill: #161615;
      }
    </style>
    <clipPath id="clippath">
      <rect class="cls-2" width="500" height="296.5"/>
    </clipPath>
  </defs>
  <g id="Grupo_11" data-name="Grupo 11">
    <g class="cls-6">
      <g id="Grupo_10" data-name="Grupo 10">
        <path id="Caminho_21" data-name="Caminho 21" class="cls-5" d="m76.53.25c14.4-2.07,22.08,9,31.28,17.79,5.33,5.09,10.35-1.22,15.48-1.96,18.13-2.62,35.91-3.52,53.6,2.7,8.76,3.08,9.85-6.91,14.58-10.43,16.18-12.04,40.43-8.71,51.88,7.82,13.2,19.07,20.32,40.42,26.8,62.42,6.37,21.62,9.09,43.75,10.77,65.86,1.86,24.54,1.76,49.51-6.75,73.22-3.19,8.88-9.6,16.49-18.04,20.76-8.13,4.11-11.6-3.37-15.07-9.01-1.41-2.29-2.51-4.76-3.76-7.15-1.23,2.58-3.1,5.04-3.59,7.75-4.19,23.22-17.67,39.08-37.93,50.35-15.52,8.64-32.01,12.13-49.43,14.87-14.06,2.21-27.58,1.32-40.72-1.26-21.13-4.14-40.16-13.5-55.48-29.7-7.93-8.39-12.42-18.33-17.63-28.18-.76-1.44-7.61-.86-11.37-3.65-13.77-10.19-17.29-25.06-19.15-40.65-2.38-19.95-2.97-40,.01-59.92,3.49-23.25,9.27-45.82,18.78-67.57C30.13,43.02,40.64,22.76,57.23,6.15,62.36,1.02,68.8-.44,76.53.25m150.08,119.79c1.69-24.03-1.01-46.8-14.19-68.04-13.09-21.1-32.21-31.61-55.63-34.62-17.11-2.2-33.88.17-49.64,8.88-21.18,11.7-32.34,30.88-39.76,52.32-5.48,15.85-9.15,32.48-11.98,49.05-3.49,20.46-14.35,38.05-20.56,57.47-7.68,24.02-2.46,45.71,9.03,65.3,14.87,25.34,40.46,37.85,68.8,41.12,30.8,3.56,60.84-.28,88.12-18.13,22.51-14.72,30.13-36.43,32.43-61.03,1.37-14.65-1.72-29.16-3.99-43.7-2.5-16.03-4.28-32.3-2.64-48.62M62.58,83.16c-.41-1.16-.77-2.19-1.14-3.23-.49.21-1.26.28-1.41.63-2.52,5.68-5.65,11.21-7.28,17.15-4.22,15.38-9.67,30.51-10.27,46.76-.11,3.07-4.18,7.24-.72,8.98,2.06,1.03,2.75-4.76,4.13-7.47,10.06-19.79,8.75-42.48,16.69-62.82m168.62,51.36c-1.73,12.68,1.11,25.61,2.38,38.64.07.77.68,1.48,1.04,2.22.44-.51,1.18-.97,1.28-1.55.85-4.61,2-9.22,2.27-13.87,1.03-17.49-2.04-34.64-4.86-51.79-.07-.44-.61-.8-.92-1.19-.4.8-1.14,1.61-1.14,2.41-.09,8.2-.05,16.4-.05,25.13"/>
        <path id="Caminho_22" data-name="Caminho 22" class="cls-3" d="m226.61,120.04c-1.64,16.32.13,32.59,2.64,48.62,2.27,14.54,5.36,29.05,3.99,43.7-2.31,24.6-9.92,46.3-32.43,61.03-27.28,17.85-57.32,21.69-88.12,18.13-28.33-3.27-53.92-15.78-68.8-41.12-11.5-19.59-16.71-41.28-9.03-65.3,6.21-19.42,17.06-37.01,20.56-57.47,2.83-16.57,6.5-33.2,11.98-49.05,7.41-21.45,18.58-40.62,39.76-52.32,15.77-8.71,32.54-11.07,49.64-8.88,23.42,3.01,42.54,13.53,55.63,34.62,13.18,21.24,15.88,44.01,14.19,68.04m-90.75,36.86c-23.02,0-41.3,12.97-40.12,29.93,1.77,25.22,16.51,52,41.31,52.08,18.35.05,43.51-25.68,43.52-44.43.02-20.17-20.7-37.58-44.71-37.58m-30.81-66.71c.27,3.92-.25,7.95.97,11.35,2.24,6.29,6.67,12.44,14,8.42,15.99-8.77,18.94-24.75,19.1-41.12.06-5.86-2.37-12.15-8.28-15.16-2.09-1.06-5.89-.8-7.95.44-13.61,8.18-16.82,21.69-17.83,36.07m85.55-3.89c.8-4.3-1.67-12.46-5.73-19.72-2.14-3.83-5.34-8.36-11.34-8.39-5.21-.03-7.84,3.22-9.95,7-7.89,14.14-5.96,28.47.39,42.36,2.51,5.49,6.45,11.76,14.09,9.09,12.45-4.35,11.49-15.67,12.55-30.34"/>
        <path id="Caminho_23" data-name="Caminho 23" class="cls-1" d="m135.86,156.91c24.02,0,44.73,17.41,44.71,37.58-.02,18.75-25.18,44.49-43.53,44.43-24.8-.07-39.54-26.86-41.3-52.08-1.19-16.96,17.1-29.93,40.12-29.93"/>
        <path id="Caminho_24" data-name="Caminho 24" class="cls-5" d="m105.04,90.2c1.01-14.39,4.22-27.9,17.83-36.07,2.07-1.24,5.86-1.5,7.95-.44,5.92,3.01,8.34,9.3,8.29,15.16-.17,16.37-3.11,32.35-19.1,41.12-7.33,4.02-11.76-2.13-14-8.42-1.21-3.41-.7-7.43-.97-11.35"/>
        <path id="Caminho_25" data-name="Caminho 25" class="cls-5" d="m190.6,86.31c-1.07,14.67-.11,25.99-12.55,30.34-7.63,2.67-11.58-3.6-14.09-9.09-6.35-13.89-8.27-28.22-.38-42.36,2.11-3.78,4.74-7.03,9.95-7,6,.03,9.2,4.56,11.34,8.39,4.06,7.26,6.54,15.42,5.73,19.72"/>
        <path id="Caminho_26" data-name="Caminho 26" class="cls-4" d="m375.4,262.84c-2.26,5.07-10.73,8.01-25.42,8.8-13.29.73-25.73-.28-37.35-3.04-4.34-.92-8.57-2.29-12.63-4.08-9.47-4.22-16.11-10.04-19.91-17.47-3.74-7.05-4.14-13.88-1.2-20.49,3.66-8.23,13.91-11.29,30.75-9.18,13.81,1.68,24.83,4.35,33.07,8.02,9.32,4.09,17.75,9.95,24.83,17.25,7.63,8.1,10.25,14.83,7.87,20.19m117.21-98.66c-4.99,11.2-12.07,18.36-21.27,21.49-11.17,3.97-26.14,1.78-44.89-6.57-8.43-3.8-16.61-8.13-24.5-12.97-3.76-2.32-7.65-4.4-11.67-6.23-16.65-7.42-28.67-6.06-36.04,4.08-1.31,1.85-2.42,3.83-3.32,5.92-2.98,6.7-4.39,18.63-4.23,35.78-10.76-.32-20.01-2.2-27.76-5.65-4.79-2.13-7.73-4.53-8.83-7.2-12.01-27.37-14.78-48.32-8.3-62.87,3.15-7.08,8.37-11.52,15.65-13.33,7.28-1.8,15.8-.53,25.57,3.81,1.24.55,3.09,1.43,5.53,2.64,2.44,1.2,4.29,2.08,5.53,2.64,13.97,6.22,25.9,9.18,35.78,8.88,8.9-.16,17.03-3.48,24.39-9.95,4.87-4.25,11.32-12.04,19.35-23.37,1.7-2.36,3.17-4.87,4.38-7.51,7.16-16.08-2.37-29.95-28.59-41.63-9.67-4.3-18.9-7.18-27.71-8.64-8.81-1.46-13.79-.9-14.94,1.69-.81,1.82,2.35,5.81,9.47,11.96,17.32,14.94,23.89,27.09,19.71,36.47-2.09,4.69-9.53,7.23-22.31,7.61-14.52.41-29.39-2.77-44.6-9.54-29.38-13.08-39.76-29.29-31.16-48.62,5.8-13.01,19.89-19.81,42.28-20.39,23.32-.62,49.87,5.7,79.63,18.95,29.28,13.04,50.93,28.93,64.95,47.67,12.18,16.43,17.09,32.55,14.75,48.37-1.66,11.19-3.94,20.03-6.83,26.54"/>
      </g>
    </g>
  </g>
</svg>